<svg width="304" height="78" viewBox="0 0 304 78" fill="none" xmlns="http://www.w3.org/2000/svg">
<path d="M101.36 44.3329C101.43 44.0325 101.521 43.737 101.629 43.4482C101.734 43.1783 101.824 42.9309 101.907 42.6985L114.788 10.6465C114.869 10.4234 115.003 10.223 115.177 10.0617C115.294 9.95129 115.432 9.86577 115.583 9.81035C115.734 9.75493 115.894 9.73076 116.055 9.73932H119.901C120.051 9.72586 120.202 9.74429 120.344 9.7934C120.486 9.84251 120.616 9.92118 120.726 10.0242C120.862 10.1807 120.985 10.3488 121.093 10.5266L121.88 12.3934L134.499 43.9506C134.501 44.0367 134.513 44.1223 134.536 44.2055C134.545 44.3052 134.545 44.4056 134.536 44.5054C134.536 44.9777 134.191 45.2551 133.486 45.2551H128.808C128.523 45.2727 128.239 45.1992 127.998 45.0452C127.782 44.8664 127.616 44.6336 127.518 44.3704L127.091 43.2758L126.184 40.9815C125.876 40.2318 125.584 39.482 125.299 38.6648H110.559C110.139 39.7744 109.742 40.8241 109.352 41.8063C108.962 42.7884 108.602 43.6432 108.355 44.3704C108.278 44.6353 108.114 44.8665 107.889 45.027C107.665 45.1874 107.393 45.2678 107.118 45.2551H102.334C102.074 45.2714 101.814 45.2142 101.584 45.0902C101.497 45.0397 101.425 44.9662 101.376 44.8777C101.327 44.7891 101.303 44.6889 101.307 44.5878C101.31 44.5005 101.327 44.4142 101.36 44.3329ZM117.989 18.8413C117.124 21.0356 116.267 23.3123 115.417 25.6716C114.568 28.0308 113.713 30.3025 112.853 32.4868H123.027L117.989 18.8413Z" fill="white"/>
<path d="M160.995 19.2012C160.794 19.2031 160.596 19.1486 160.425 19.0437C160.215 18.9187 160.014 18.7783 159.825 18.6239H159.772C159.405 18.2641 159.014 17.9285 158.603 17.6192C157.551 16.7997 156.367 16.1658 155.102 15.7448C154.437 15.5218 153.741 15.4078 153.04 15.4074C152.248 15.413 151.461 15.5265 150.7 15.7448C150.086 15.9138 149.505 16.1877 148.984 16.5545C148.544 16.8695 148.185 17.2829 147.934 17.7616C147.693 18.2246 147.57 18.7394 147.574 19.2612C147.569 19.8094 147.76 20.3414 148.114 20.7607C148.522 21.2314 149.015 21.6207 149.568 21.9078C150.248 22.2672 150.955 22.5731 151.683 22.8225C152.477 23.1074 153.317 23.3773 154.194 23.6472C155.191 23.9546 156.189 24.277 157.193 24.6294C158.16 24.9696 159.106 25.3651 160.027 25.814C160.902 26.2356 161.744 26.7218 162.547 27.2685C163.306 27.7809 163.985 28.4024 164.563 29.1129C165.131 29.8091 165.584 30.5911 165.905 31.4296C166.242 32.3516 166.407 33.3273 166.393 34.3087C166.415 35.9386 166.056 37.5511 165.343 39.0171C164.643 40.4093 163.65 41.6342 162.434 42.6085C161.141 43.6383 159.666 44.4165 158.086 44.9027C156.351 45.447 154.543 45.7177 152.725 45.7049C151.492 45.7056 150.264 45.5596 149.066 45.2701C147.865 44.9873 146.696 44.5802 145.58 44.0555C144.465 43.5284 143.406 42.893 142.416 42.1586C141.436 41.4312 140.543 40.5935 139.754 39.6619L139.702 39.5645C139.399 39.273 139.212 38.8812 139.177 38.4623C139.177 38.285 139.227 38.1112 139.319 37.96C139.444 37.7691 139.59 37.593 139.754 37.4352L140.504 36.6479C140.744 36.4455 140.999 36.2131 141.254 35.9582C141.508 35.7032 141.793 35.4708 142.063 35.2609C142.333 35.051 142.588 34.8785 142.813 34.7361C142.979 34.618 143.173 34.5457 143.375 34.5261C143.6 34.5244 143.82 34.5983 143.998 34.7361C144.168 34.8585 144.328 34.9939 144.478 35.1409L144.575 35.2384C145.164 35.7841 145.793 36.2853 146.457 36.7379C147.138 37.2137 147.852 37.6396 148.594 38.0125C149.292 38.375 150.022 38.6712 150.775 38.8972C151.438 39.1034 152.128 39.212 152.822 39.2196C153.654 39.2281 154.482 39.117 155.281 38.8897C155.993 38.6898 156.664 38.3704 157.268 37.945C157.81 37.5466 158.257 37.0348 158.58 36.4455C158.9 35.8593 159.065 35.2013 159.06 34.5336C159.075 33.8763 158.855 33.2353 158.438 32.7267C157.982 32.192 157.43 31.7471 156.811 31.4146C156.095 31.0192 155.341 30.6952 154.562 30.4475C153.722 30.1776 152.882 29.9276 152.043 29.6977C150.298 29.1798 148.592 28.541 146.937 27.7858C145.612 27.1948 144.375 26.4226 143.263 25.4916C142.343 24.6977 141.599 23.7194 141.081 22.62C140.574 21.4993 140.318 20.2813 140.331 19.0512C140.306 17.6694 140.603 16.3006 141.199 15.0538C141.795 13.8069 142.674 12.7162 143.765 11.8686C144.954 10.9539 146.301 10.2652 147.739 9.83675C149.417 9.32338 151.165 9.07052 152.92 9.087C154.42 9.09364 155.911 9.32358 157.343 9.76927C158.805 10.2076 160.201 10.8379 161.497 11.6437C161.877 11.8836 162.267 12.1535 162.667 12.4534C163.066 12.7533 163.434 13.0607 163.769 13.3756C164.072 13.6507 164.348 13.9546 164.593 14.2828C164.772 14.4954 164.885 14.7563 164.916 15.0325C164.911 15.2378 164.862 15.4397 164.773 15.6248C164.678 15.8178 164.557 15.9968 164.413 16.1572L163.664 16.9069L162.914 17.6942C162.68 17.9594 162.429 18.2098 162.164 18.4439C161.942 18.6363 161.709 18.8165 161.467 18.9837C161.331 19.0961 161.168 19.1711 160.995 19.2012Z" fill="white"/>
<path d="M193.707 19.2012C193.504 19.2022 193.304 19.1477 193.13 19.0437C192.922 18.9184 192.724 18.7781 192.537 18.6239H192.485C192.117 18.2641 191.726 17.9285 191.315 17.6192C190.8 17.2286 190.256 16.8777 189.688 16.5696C189.088 16.2422 188.461 15.9663 187.814 15.7448C187.149 15.5218 186.453 15.4079 185.752 15.4074C184.952 15.3975 184.155 15.4984 183.383 15.7073C182.768 15.8763 182.187 16.1503 181.666 16.5171C181.226 16.834 180.865 17.2468 180.609 17.7242C180.374 18.1889 180.253 18.7029 180.256 19.2237C180.248 19.7711 180.437 20.3032 180.789 20.7232C181.212 21.1961 181.721 21.5852 182.288 21.8703C182.967 22.2325 183.674 22.5384 184.402 22.785C185.197 23.0699 186.029 23.3398 186.907 23.6097C187.911 23.9171 188.908 24.2395 189.906 24.5919C190.854 24.9375 191.783 25.3355 192.687 25.784C193.563 26.2073 194.408 26.6934 195.214 27.2385C195.971 27.7529 196.651 28.3741 197.231 29.0829C197.799 29.7775 198.249 30.56 198.565 31.3997C198.908 32.3202 199.076 33.2966 199.06 34.2787C199.083 35.9096 198.721 37.5229 198.003 38.9872C197.308 40.3805 196.318 41.606 195.101 42.5785C193.808 43.6083 192.333 44.3865 190.753 44.8727C189.018 45.4171 187.21 45.6877 185.392 45.675C184.16 45.6756 182.931 45.5296 181.733 45.2401C180.532 44.9573 179.364 44.5502 178.247 44.0255C177.132 43.5001 176.072 42.8647 175.083 42.1286C174.111 41.3996 173.226 40.562 172.444 39.632L172.399 39.5345C172.096 39.243 171.909 38.8513 171.874 38.4324C171.875 38.255 171.924 38.0812 172.016 37.93C172.141 37.7409 172.284 37.565 172.444 37.4052L173.194 36.618C173.434 36.4155 173.688 36.1831 173.943 35.9282C174.198 35.6733 174.491 35.4408 174.761 35.2309C175.03 35.021 175.278 34.8485 175.51 34.7061C175.676 34.5881 175.87 34.5157 176.073 34.4961C176.298 34.4956 176.516 34.5694 176.695 34.7061C176.864 34.8305 177.024 34.9657 177.175 35.1109L177.265 35.2084C177.853 35.7523 178.479 36.2534 179.139 36.7079C179.823 37.1821 180.54 37.6079 181.283 37.9825C181.98 38.3476 182.711 38.6439 183.465 38.8672C184.128 39.0735 184.818 39.1821 185.512 39.1896C186.343 39.1976 187.171 39.0865 187.971 38.8597C188.681 38.6614 189.35 38.3418 189.951 37.915C190.496 37.5189 190.947 37.0068 191.27 36.4155C191.587 35.8287 191.75 35.1707 191.742 34.5036C191.76 33.8473 191.542 33.2064 191.128 32.6967C190.67 32.1638 190.119 31.7191 189.501 31.3847C188.785 30.9892 188.031 30.6653 187.251 30.4175C186.412 30.1476 185.572 29.8927 184.725 29.6677C182.983 29.15 181.279 28.5112 179.626 27.7559C178.311 27.1723 177.083 26.4104 175.975 25.4916C175.053 24.6997 174.309 23.7209 173.793 22.6201C173.286 21.4994 173.03 20.2813 173.044 19.0512C173.022 17.6693 173.321 16.3011 173.918 15.0546C174.516 13.8081 175.394 12.7175 176.485 11.8686C177.672 10.9554 179.016 10.2668 180.451 9.83677C182.132 9.3239 183.882 9.07107 185.639 9.08701C187.137 9.09261 188.626 9.32258 190.056 9.76929C191.52 10.2058 192.919 10.8362 194.217 11.6437C194.597 11.8836 194.986 12.1535 195.386 12.4534C195.786 12.7533 196.154 13.0607 196.488 13.3756C196.79 13.6527 197.066 13.9563 197.313 14.2828C197.492 14.4955 197.604 14.7563 197.636 15.0326C197.631 15.2388 197.58 15.4414 197.486 15.6249C197.396 15.8191 197.277 15.9985 197.133 16.1572L196.383 16.9069L195.634 17.6942C195.4 17.9594 195.149 18.2098 194.884 18.4439C194.629 18.6614 194.397 18.8413 194.194 18.9838C194.054 19.0985 193.886 19.1736 193.707 19.2012Z" fill="white"/>
<path d="M212.87 30.8148C212.85 32.0408 213.043 33.2608 213.439 34.4211C213.787 35.426 214.335 36.3495 215.051 37.1352C215.748 37.8741 216.598 38.4523 217.541 38.8297C218.562 39.2308 219.652 39.4294 220.749 39.4145C221.894 39.4324 223.031 39.2208 224.093 38.7922C225.048 38.4045 225.902 37.8046 226.59 37.0378C227.292 36.2451 227.823 35.316 228.15 34.3087C228.512 33.18 228.689 32.0001 228.674 30.8148V10.7889C228.672 10.649 228.699 10.5101 228.753 10.381C228.807 10.252 228.888 10.1356 228.989 10.0392C229.189 9.84188 229.458 9.73141 229.739 9.73177H234.358C234.669 9.72406 234.971 9.83382 235.205 10.0392C235.314 10.131 235.402 10.2458 235.461 10.3754C235.521 10.505 235.551 10.6463 235.55 10.7889V31.0772C235.598 33.2903 235.192 35.4898 234.358 37.5401C233.642 39.2662 232.561 40.8168 231.189 42.0853C229.817 43.3537 228.187 44.3097 226.41 44.8877C224.57 45.4963 222.643 45.8027 220.705 45.7949C218.761 45.8063 216.83 45.479 214.999 44.8277C213.26 44.2041 211.664 43.2379 210.305 41.9862C208.919 40.6927 207.82 39.1216 207.082 37.3752C206.255 35.3775 205.85 33.2311 205.889 31.0697V10.7889C205.885 10.5131 205.984 10.2456 206.167 10.0392C206.251 9.93323 206.358 9.84827 206.48 9.79101C206.603 9.73375 206.737 9.70576 206.872 9.70928H211.745C212.023 9.7229 212.287 9.83141 212.495 10.0167C212.612 10.1032 212.708 10.216 212.775 10.3462C212.841 10.4764 212.876 10.6203 212.877 10.7664L212.87 30.8148Z" fill="white"/>
<path d="M243.857 10.8639C243.857 10.1141 244.21 9.73925 244.907 9.73925H259.527C261.073 9.72924 262.605 10.0381 264.026 10.6465C265.392 11.2283 266.636 12.0626 267.692 13.1056C268.759 14.1731 269.604 15.4403 270.181 16.8349C270.757 18.2295 271.053 19.724 271.051 21.233C271.053 22.2993 270.899 23.3602 270.594 24.3819C270.005 26.3472 268.899 28.1183 267.392 29.5102C266.644 30.1997 265.81 30.7894 264.91 31.2647L271.118 43.5231C271.152 43.6906 271.21 43.8522 271.291 44.003C271.368 44.1592 271.409 44.331 271.411 44.5053C271.411 44.9777 271.126 45.2551 270.571 45.2551H265.03C264.765 45.2576 264.508 45.1665 264.304 44.9978C264.099 44.8291 263.961 44.5936 263.913 44.3329L258.125 32.8691H257.3H256.086H250.838V44.1904C250.838 44.8802 250.47 45.2176 249.743 45.2176H244.937C244.666 45.2264 244.4 45.1387 244.187 44.9702C244.09 44.872 244.015 44.7546 243.966 44.6254C243.916 44.4963 243.895 44.3583 243.902 44.2204L243.857 10.8639ZM263.996 21.263C263.996 20.5824 263.866 19.908 263.613 19.2761C263.118 17.968 262.146 16.8963 260.892 16.2771C260.242 15.9616 259.536 15.7806 258.815 15.7448H257.166H250.793V26.7961H257.998C258.278 26.7961 258.578 26.7811 258.897 26.7512C259.612 26.7074 260.311 26.5293 260.959 26.2263C261.573 25.938 262.122 25.5272 262.571 25.0192C263.023 24.517 263.376 23.9347 263.613 23.3023C263.867 22.6523 263.997 21.9606 263.996 21.263Z" fill="white"/>
<path d="M278.24 10.8864C278.24 10.1367 278.585 9.73928 279.29 9.73928H302.323C302.487 9.72196 302.653 9.74424 302.807 9.80424C302.961 9.86424 303.098 9.96023 303.207 10.0842C303.388 10.34 303.481 10.6481 303.47 10.9614V15.1825C303.467 15.4612 303.36 15.7289 303.17 15.9322C303.055 16.0504 302.915 16.1419 302.761 16.2002C302.607 16.2585 302.442 16.2822 302.278 16.2696H285.288V23.5122H298.401C298.533 23.4894 298.669 23.4957 298.799 23.5307C298.928 23.5657 299.048 23.6284 299.151 23.7147C299.257 23.8268 299.338 23.9607 299.387 24.1069C299.436 24.2532 299.453 24.4085 299.436 24.5619V28.888C299.438 29.1559 299.357 29.4178 299.204 29.6377C299.114 29.7481 298.999 29.8356 298.868 29.893C298.738 29.9503 298.596 29.9759 298.454 29.9676H285.288V38.6723H302.9C303.059 38.6502 303.22 38.6651 303.373 38.7158C303.525 38.7666 303.663 38.8517 303.777 38.9647C303.944 39.2278 304.021 39.5386 303.994 39.8494V44.2354C303.994 44.9102 303.642 45.2401 302.945 45.2401H279.29C279.02 45.2498 278.755 45.1649 278.54 45.0002C278.435 44.9076 278.352 44.7916 278.298 44.6615C278.245 44.5314 278.223 44.3907 278.233 44.2504L278.24 10.8864Z" fill="white"/>
<path d="M138.045 58.3008C138.167 58.2991 138.286 58.3387 138.382 58.4133C138.434 58.4551 138.476 58.5075 138.506 58.567C138.535 58.6265 138.552 58.6917 138.555 58.7581V59.8153C138.557 59.9455 138.515 60.0727 138.435 60.1752C138.384 60.2271 138.324 60.2674 138.256 60.2933C138.189 60.3192 138.117 60.3301 138.045 60.3251H133.711V73.3034C133.71 73.4251 133.665 73.5424 133.584 73.6332C133.54 73.683 133.486 73.7224 133.425 73.7483C133.364 73.7743 133.297 73.7862 133.231 73.7832H132.174C132.051 73.7822 131.933 73.7339 131.844 73.6482C131.797 73.6043 131.76 73.5508 131.736 73.4913C131.711 73.4318 131.699 73.3677 131.702 73.3034V60.3251H127.338C127.213 60.3281 127.092 60.2824 127.001 60.1977C126.95 60.1486 126.911 60.0888 126.886 60.0227C126.862 59.9565 126.852 59.8856 126.858 59.8153V58.7581C126.856 58.696 126.867 58.634 126.892 58.5769C126.916 58.5197 126.954 58.4689 127.001 58.4283C127.092 58.3435 127.213 58.2978 127.338 58.3008H138.045Z" fill="white"/>
<path d="M151.713 58.3008C152.028 58.3008 152.193 58.4657 152.193 58.8031V59.8303C152.193 59.9556 152.151 60.0773 152.073 60.1752C152.024 60.2273 151.965 60.2679 151.899 60.2939C151.833 60.3198 151.761 60.3305 151.69 60.3251H143.286V64.6062H149.898C150.016 64.6029 150.131 64.6429 150.221 64.7187C150.27 64.7658 150.307 64.8233 150.33 64.8869C150.354 64.9505 150.362 65.0186 150.356 65.086V66.1507C150.358 66.2704 150.318 66.3869 150.243 66.4806C150.201 66.5307 150.149 66.5703 150.089 66.5963C150.029 66.6224 149.964 66.6341 149.898 66.6305H143.286V71.7588H151.735C151.801 71.75 151.868 71.7565 151.931 71.778C151.994 71.7994 152.051 71.8352 152.097 71.8825C152.144 71.9298 152.179 71.9873 152.199 72.0504C152.22 72.1135 152.225 72.1806 152.215 72.2462V73.3183C152.224 73.3814 152.218 73.4457 152.198 73.506C152.177 73.5664 152.143 73.6212 152.098 73.6663C152.053 73.7113 151.998 73.7453 151.938 73.7656C151.878 73.7859 151.813 73.7919 151.75 73.7832H141.704C141.643 73.793 141.58 73.7885 141.521 73.7699C141.462 73.7514 141.409 73.7194 141.364 73.6765C141.32 73.6336 141.286 73.5809 141.266 73.5226C141.245 73.4643 141.239 73.4021 141.246 73.3408V58.7806C141.246 58.4582 141.396 58.3008 141.704 58.3008H151.713Z" fill="white"/>
<path d="M167.045 59.6053C167.119 59.6584 167.183 59.7245 167.233 59.8003C167.279 59.8638 167.305 59.9394 167.308 60.0177C167.31 60.1109 167.278 60.2018 167.218 60.2726L166.67 61.1873C166.55 61.3523 166.43 61.4422 166.303 61.4422C166.251 61.4518 166.198 61.4518 166.146 61.4422C166.075 61.4074 166.007 61.3673 165.943 61.3223C165.459 60.9727 164.926 60.6972 164.361 60.505C163.797 60.3141 163.209 60.203 162.614 60.1751C161.763 60.1647 160.918 60.328 160.132 60.655C159.416 60.956 158.76 61.3854 158.198 61.9221C157.648 62.4648 157.207 63.109 156.901 63.8189C156.59 64.5281 156.429 65.2939 156.429 66.0682C156.423 66.8778 156.587 67.6796 156.909 68.4224C157.213 69.1291 157.651 69.7706 158.198 70.3118C158.74 70.8316 159.377 71.2437 160.073 71.5264C160.786 71.8202 161.55 71.9705 162.322 71.9688C162.608 71.9686 162.894 71.9461 163.176 71.9013C163.472 71.8589 163.764 71.7886 164.046 71.6914C164.353 71.5776 164.653 71.4475 164.946 71.3015C165.299 71.1325 165.639 70.9396 165.966 70.7242C166.063 70.6624 166.173 70.6239 166.288 70.6117C166.415 70.6117 166.528 70.7017 166.633 70.8741L167.225 71.8488C167.272 71.9258 167.298 72.0137 167.3 72.1037C167.299 72.1863 167.276 72.267 167.232 72.3371C167.189 72.4072 167.126 72.4639 167.053 72.5011C166.392 72.9764 165.664 73.3504 164.893 73.6107C163.382 74.0961 161.764 74.1378 160.23 73.7307C159.565 73.5473 158.928 73.2776 158.333 72.9284C157.737 72.5823 157.188 72.1615 156.699 71.6764C156.214 71.1995 155.795 70.6599 155.454 70.0719C155.109 69.4762 154.842 68.8387 154.659 68.175C154.289 66.7897 154.289 65.3317 154.659 63.9464C155.023 62.6173 155.726 61.4056 156.699 60.4301C157.178 59.9447 157.72 59.5261 158.311 59.1855C158.909 58.8367 159.549 58.5646 160.215 58.3757C160.906 58.1847 161.62 58.0888 162.337 58.0908C163.175 58.0849 164.008 58.2166 164.803 58.4807C165.604 58.7391 166.36 59.1184 167.045 59.6053Z" fill="white"/>
<path d="M180.99 58.7581C180.99 58.6384 181.036 58.5232 181.117 58.4357C181.16 58.3908 181.211 58.3555 181.268 58.3322C181.325 58.3089 181.386 58.2982 181.447 58.3008H182.505C182.629 58.3021 182.748 58.3472 182.842 58.4282C182.892 58.467 182.933 58.5171 182.96 58.5744C182.987 58.6317 183.001 58.6947 182.999 58.7581V73.3183C182.999 73.6257 182.834 73.7832 182.505 73.7832H181.44C181.377 73.7922 181.313 73.7864 181.253 73.7661C181.193 73.7458 181.138 73.7116 181.094 73.6664C181.049 73.6211 181.016 73.5661 180.997 73.5056C180.977 73.4452 180.972 73.381 180.983 73.3183V66.6305H172.203V73.3183C172.203 73.6257 172.038 73.7832 171.701 73.7832H170.651C170.588 73.7922 170.524 73.7864 170.464 73.7661C170.404 73.7458 170.349 73.7116 170.305 73.6664C170.26 73.6211 170.227 73.5661 170.208 73.5056C170.188 73.4452 170.184 73.381 170.194 73.3183V58.7581C170.191 58.6393 170.234 58.5239 170.314 58.4357C170.357 58.391 170.41 58.3559 170.468 58.3327C170.526 58.3094 170.588 58.2986 170.651 58.3008H171.693C171.819 58.2998 171.94 58.3483 172.03 58.4357C172.076 58.4763 172.112 58.526 172.136 58.5816C172.161 58.6372 172.173 58.6974 172.173 58.7581V64.6062H180.99V58.7581Z" fill="white"/>
<path d="M198.159 73.7832C198.079 73.7796 198.001 73.7565 197.932 73.716C197.863 73.6755 197.804 73.6188 197.762 73.5508L188.66 61.3523V73.3483C188.668 73.4125 188.66 73.4777 188.639 73.5386C188.617 73.5995 188.582 73.6546 188.535 73.6996C188.489 73.7446 188.432 73.7783 188.371 73.798C188.309 73.8177 188.244 73.8229 188.18 73.8132H187.13C187.068 73.8222 187.004 73.8163 186.943 73.7961C186.883 73.7758 186.829 73.7416 186.784 73.6964C186.74 73.6511 186.706 73.5961 186.687 73.5356C186.668 73.4752 186.663 73.411 186.673 73.3483V58.7806C186.667 58.6545 186.71 58.5308 186.793 58.4357C186.837 58.391 186.889 58.3559 186.948 58.3327C187.006 58.3095 187.068 58.2986 187.13 58.3008H188.525C188.612 58.299 188.699 58.3194 188.776 58.3601C188.853 58.4007 188.919 58.4603 188.967 58.5332L197.837 70.3193V58.6907C197.84 58.6344 197.854 58.5793 197.879 58.5288C197.904 58.4783 197.938 58.4334 197.981 58.3968C198.024 58.3603 198.074 58.3329 198.128 58.3164C198.182 58.2999 198.238 58.2946 198.294 58.3008H199.344C199.472 58.3035 199.596 58.3483 199.696 58.4283C199.747 58.467 199.787 58.5171 199.814 58.5744C199.842 58.6317 199.855 58.6947 199.854 58.7581V73.3183C199.854 73.6257 199.689 73.7832 199.344 73.7832H198.159Z" fill="white"/>
<path d="M211.003 58.0909C212.41 58.0902 213.793 58.4655 215.007 59.178C215.593 59.5254 216.134 59.9434 216.619 60.4226C217.103 60.9021 217.522 61.4442 217.863 62.0346C218.211 62.6376 218.481 63.2826 218.665 63.9539C218.86 64.6443 218.955 65.3586 218.95 66.0757C218.954 66.7898 218.86 67.501 218.673 68.19C218.488 68.8542 218.218 69.4918 217.871 70.0869C217.521 70.669 217.103 71.2076 216.626 71.6914C216.143 72.1699 215.601 72.5856 215.014 72.9285C213.149 73.999 210.936 74.2874 208.859 73.7307C208.184 73.5498 207.536 73.2801 206.932 72.9285C206.346 72.5802 205.807 72.1595 205.327 71.6764C204.843 71.1996 204.424 70.6599 204.083 70.0719C203.735 69.4778 203.467 68.8399 203.288 68.175C202.908 66.7911 202.908 65.3304 203.288 63.9464C203.654 62.6166 204.359 61.4047 205.335 60.4301C205.814 59.9447 206.356 59.5261 206.947 59.1855C207.545 58.8367 208.185 58.5647 208.851 58.3758C209.552 58.182 210.276 58.0861 211.003 58.0909ZM205.005 66.0233C205.004 66.5581 205.077 67.0905 205.222 67.6052C205.363 68.1005 205.564 68.5765 205.822 69.0223C206.335 69.9049 207.069 70.6387 207.951 71.1516C208.396 71.4123 208.872 71.6139 209.368 71.7514C210.401 72.0415 211.493 72.0415 212.525 71.7514C213.511 71.4825 214.411 70.9664 215.142 70.2519C215.499 69.8902 215.809 69.4846 216.064 69.0448C216.324 68.6005 216.526 68.1241 216.664 67.6277C216.809 67.113 216.882 66.5806 216.881 66.0457C216.886 65.2515 216.725 64.465 216.409 63.7365C215.809 62.3172 214.679 61.1876 213.26 60.5875C212.531 60.2711 211.745 60.1102 210.95 60.1152C210.416 60.1143 209.883 60.1875 209.368 60.3326C208.872 60.4701 208.396 60.6717 207.951 60.9324C207.513 61.1856 207.109 61.4957 206.752 61.8546C206.392 62.213 206.079 62.6161 205.822 63.0542C205.564 63.5 205.363 63.976 205.222 64.4713C205.09 64.9778 205.027 65.4998 205.035 66.0233H205.005Z" fill="white"/>
<path d="M231.546 71.7589C231.666 71.7574 231.782 71.8032 231.868 71.8863C231.914 71.934 231.95 71.9906 231.973 72.0524C231.996 72.1143 232.006 72.1802 232.003 72.2462V73.3184C232.004 73.4406 231.959 73.5585 231.876 73.6483C231.834 73.6932 231.783 73.7285 231.726 73.7518C231.669 73.7751 231.607 73.7858 231.546 73.7832H222.676C222.613 73.7922 222.549 73.7864 222.489 73.7661C222.429 73.7458 222.375 73.7117 222.33 73.6664C222.286 73.6212 222.252 73.5661 222.233 73.5056C222.214 73.4452 222.209 73.381 222.219 73.3184V58.7582C222.217 58.6986 222.228 58.6394 222.25 58.584C222.272 58.5286 222.305 58.4782 222.346 58.4358C222.392 58.3891 222.447 58.3529 222.508 58.3296C222.569 58.3063 222.634 58.2965 222.699 58.3008H223.771C223.891 58.2964 224.009 58.3364 224.101 58.4133C224.144 58.4591 224.178 58.5133 224.2 58.5726C224.222 58.6319 224.232 58.695 224.228 58.7582V71.7589H231.546Z" fill="white"/>
<path d="M241.54 58.0908C242.95 58.0888 244.335 58.4642 245.551 59.178C246.137 59.5237 246.676 59.9418 247.156 60.4226C247.643 60.9018 248.064 61.4439 248.408 62.0345C248.75 62.6406 249.019 63.2849 249.21 63.9539C249.59 65.3404 249.59 66.8035 249.21 68.19C249.029 68.8553 248.759 69.4933 248.408 70.0869C248.063 70.6724 247.645 71.2115 247.163 71.6913C246.192 72.6582 244.989 73.3602 243.67 73.7307C242.643 74.0153 241.57 74.091 240.514 73.9532C239.458 73.8154 238.44 73.4669 237.522 72.9284C236.938 72.5782 236.399 72.1577 235.917 71.6764C234.931 70.6787 234.224 69.4398 233.866 68.0835C233.508 66.7271 233.512 65.3007 233.878 63.9464C234.06 63.2802 234.327 62.6402 234.673 62.042C235.021 61.4544 235.441 60.9128 235.925 60.4301C236.401 59.9448 236.941 59.5262 237.529 59.1855C238.128 58.8382 238.768 58.5662 239.433 58.3757C240.12 58.1865 240.828 58.0906 241.54 58.0908ZM235.542 66.0232C235.539 66.5577 235.61 67.0901 235.752 67.6052C235.893 68.1005 236.094 68.5764 236.352 69.0222C236.612 69.4607 236.924 69.866 237.282 70.2293C237.642 70.5884 238.048 70.8985 238.489 71.1515C238.932 71.4149 239.408 71.6166 239.906 71.7513C240.935 72.0412 242.025 72.0412 243.055 71.7513C243.552 71.6166 244.029 71.4149 244.472 71.1515C244.911 70.8984 245.314 70.5883 245.671 70.2293C246.055 69.8723 246.39 69.4664 246.669 69.0222C246.926 68.5764 247.128 68.1005 247.268 67.6052C247.619 66.3159 247.529 64.9465 247.013 63.714C246.711 63.0118 246.279 62.3732 245.739 61.8321C245.199 61.2929 244.56 60.8627 243.857 60.565C243.129 60.2479 242.342 60.087 241.548 60.0927C241.015 60.0918 240.486 60.165 239.973 60.3101C239.476 60.4448 238.999 60.6466 238.556 60.9099C238.115 61.1629 237.709 61.473 237.349 61.8321C236.994 62.1943 236.681 62.5969 236.419 63.0317C236.162 63.4775 235.96 63.9534 235.82 64.4487C235.668 64.9601 235.587 65.4899 235.58 66.0232H235.542Z" fill="white"/>
<path d="M263.163 67.4028C263.154 67.3407 263.16 67.2774 263.18 67.2179C263.2 67.1585 263.234 67.1044 263.278 67.0601C263.322 67.0157 263.376 66.9823 263.436 66.9624C263.495 66.9425 263.558 66.9367 263.621 66.9454H264.693C264.816 66.9426 264.936 66.9853 265.03 67.0654C265.079 67.1061 265.118 67.158 265.143 67.2167C265.167 67.2754 265.178 67.3393 265.173 67.4028V72.0588C265.174 72.1417 265.156 72.2239 265.12 72.2987C265.081 72.3742 265.021 72.4367 264.948 72.4786L264.858 72.5386C264.203 73.0139 263.477 73.381 262.706 73.6257C261.881 73.886 261.021 74.0151 260.157 74.0081C259.443 74.0121 258.731 73.9187 258.042 73.7307C257.377 73.5488 256.739 73.279 256.146 72.9285C255.558 72.5802 255.016 72.1596 254.534 71.6764C254.053 71.1974 253.638 70.6581 253.296 70.0719C252.948 69.4778 252.681 68.8398 252.502 68.175C252.311 67.484 252.215 66.7702 252.217 66.0532C252.216 65.3438 252.312 64.6375 252.502 63.9539C252.682 63.2881 252.952 62.65 253.304 62.057C253.647 61.4656 254.065 60.9212 254.549 60.4376C255.029 59.9545 255.568 59.5338 256.153 59.1855C256.749 58.8373 257.386 58.5652 258.05 58.3758C259.557 57.9631 261.152 57.9996 262.638 58.4807C263.441 58.7384 264.2 59.1177 264.888 59.6054C264.965 59.6546 265.029 59.7214 265.075 59.8003C265.124 59.8621 265.151 59.9388 265.15 60.0177C265.155 60.11 265.126 60.2007 265.068 60.2726L264.513 61.1873C264.478 61.2555 264.426 61.3142 264.364 61.3586C264.301 61.4029 264.229 61.4316 264.153 61.4423C264.098 61.4519 264.043 61.4519 263.988 61.4423C263.918 61.4074 263.85 61.3673 263.786 61.3223C263.287 60.9649 262.739 60.682 262.159 60.4826C261.554 60.2727 260.917 60.1687 260.277 60.1752C259.454 60.1678 258.639 60.3339 257.885 60.6625C256.453 61.2843 255.314 62.4333 254.706 63.8715C254.401 64.5819 254.245 65.3475 254.249 66.1207C254.242 66.9199 254.403 67.7116 254.721 68.4449C255.319 69.858 256.447 70.9804 257.862 71.5714C258.573 71.8778 259.338 72.036 260.112 72.0363C260.621 72.0331 261.128 71.9496 261.611 71.7888C262.114 71.6239 262.623 71.429 263.148 71.2115L263.163 67.4028Z" fill="white"/>
<path d="M267.122 58.8031C267.037 58.703 266.994 58.5741 267.002 58.4432C267.002 58.3457 267.107 58.3008 267.264 58.3008H268.951H269.109C269.151 58.3078 269.192 58.323 269.229 58.3457C269.269 58.3808 269.304 58.4212 269.334 58.4657C269.334 58.5257 269.409 58.6007 269.469 58.6981L273.217 65.1685L277.026 58.6231C277.074 58.5182 277.146 58.4258 277.236 58.3532C277.313 58.3118 277.397 58.2863 277.483 58.2783H279.223C279.38 58.2783 279.455 58.3382 279.455 58.4657C279.441 58.5636 279.402 58.6563 279.343 58.7356C278.908 59.4254 278.481 60.1226 278.061 60.8349C277.641 61.5472 277.214 62.2669 276.794 62.9867C276.374 63.7065 275.946 64.4187 275.519 65.131C275.092 65.8433 274.657 66.548 274.222 67.2303V73.2283C274.222 73.5582 274.072 73.7307 273.765 73.7307H272.648C272.355 73.7307 272.213 73.5582 272.213 73.2283V67.2303L267.122 58.8031Z" fill="white"/>
<path d="M52.048 51.6055H37.1579L29.7129 64.5013L37.1579 77.397H52.048L59.4931 64.5013L52.048 51.6055Z" fill="#EDEDEE"/>
<path d="M37.2549 51.6055H22.1174L14.5449 64.5013L22.1174 77.397H37.2549L44.82 64.5013L37.2549 51.6055Z" fill="#27A8E0"/>
<path d="M22.3351 51.6055H7.44505L0 64.5013L7.44505 77.397H22.3351L29.7727 64.5013L22.3351 51.6055Z" fill="#1B75BB"/>
<path d="M37.2323 51.6055L44.6698 38.7097L37.2248 25.814L22.3347 25.8215L14.8896 38.7172L22.3422 51.6055H37.2323Z" fill="#EDEDEE"/>
<path d="M44.7678 38.5448L52.3928 25.3342L45.0302 12.2885L30.0576 12.4534L22.4326 25.664L29.7877 38.7098L44.7678 38.5448Z" fill="#27A8E0"/>
<path d="M52.1232 25.784L59.5608 12.8883L52.1157 0L37.2256 0.00749753L29.7881 12.9033L37.2331 25.7915L52.1232 25.784Z" fill="#1B75BB"/>
<path d="M74.4208 38.7697L67.0208 25.844L52.1382 25.784L44.6406 38.6498L52.0332 51.5755L66.9233 51.628L74.4208 38.7697Z" fill="#1B75BB"/>
<path d="M81.8432 51.7555L74.3157 38.5898L59.3581 38.4099L51.9355 51.3956L59.4631 64.5612L74.4206 64.7337L81.8432 51.7555Z" fill="#27A8E0"/>
<path d="M88.9801 64.2239L81.8124 51.688L67.0348 51.8229L59.4248 64.4938L66.5999 77.0296L81.3776 76.8947L88.9801 64.2239Z" fill="#EDEDEE"/>
</svg>
